#!OML:ASF H:\Dans Jumps\Project 1\Capture day 1\Session 1\subject.ASF
:FULLY-SPECIFIED
:DEGREES
245
root 0.120253 19.0633 -7.76375 16.551 1.60584 -0.399531
lowerback -4.84551 -0.394704 -2.42286
upperback -1.8725 -0.426885 1.00401
thorax 0.81643 -0.203521 2.36799
lowerneck -12.3781 -0.209141 -2.78189
upperneck 20.3832 -0.239801 2.51348
head 8.37768 -0.0709825 1.28165
rclavicle 7.34261e-015 1.54058e-015
rhumerus -30.9949 0.95712 -72.2165
rradius 37.9359
rwrist 31.5356
rhand -17.6293 -24.6862
rfingers 7.12502
rthumb 8.62813 -54.4899
lclavicle 7.34261e-015 1.54058e-015
lhumerus -29.8271 -6.90813 69.3782
lradius 18.7325
lwrist 10.9733
lhand -20.4525 -1.93533
lfingers 7.12502
lthumb 5.90291 27.9624
rfemur -4.4197 -8.10645 17.1501
rtibia 21.6702
rfoot 16.5899 -8.19543
rtoes 3.71586
lfemur -8.10534 7.35664 -14.0011
ltibia 24.1287
lfoot 21.3671 -3.64174
ltoes -15.5684
246
root 0.119149 19.3769 -7.49793 16.1644 1.77998 -0.589806
lowerback -6.09979 -0.459679 -2.22525
upperback -1.57917 -0.496705 1.0465
thorax 1.8204 -0.255081 2.28964
lowerneck -11.6035 -0.151616 -2.73271
upperneck 20.9052 -0.181494 2.44447
head 8.40994 -0.0519423 1.25867
rclavicle 9.54166e-015 3.52843e-015
rhumerus -31.4489 0.760844 -72.3397
rradius 37.6687
rwrist 31.5944
rhand -17.4082 -24.652
rfingers 7.12502
rthumb 8.8414 -54.4468
lclavicle 9.54166e-015 3.52843e-015
lhumerus -30.2639 -7.49897 69.4115
lradius 18.6352
lwrist 11.0602
lhand -20.0578 -1.85344
lfingers 7.12502
lthumb 6.28406 28.0334
rfemur -3.63372 -8.20872 17.2028
rtibia 22.0837
rfoot 20.171 -9.52128
rtoes 9.6949
lfemur -7.65983 6.99149 -13.5172
ltibia 24.6057
lfoot 24.5376 -3.60793
ltoes -12.8265
247
root 0.116176 19.6838 -7.25613 15.8605 1.9844 -0.805155
lowerback -7.11446 -0.54331 -2.06158
upperback -1.29677 -0.601352 1.12379
thorax 2.68245 -0.320254 2.26277
lowerneck -10.8871 -0.0891362 -2.68561
upperneck 21.2528 -0.116526 2.39873
head 8.3937 -0.0267237 1.24299
rclavicle -8.32411e-015 -1.83876e-015
rhumerus -31.7379 0.254055 -72.435
rradius 37.3434
rwrist 31.5898
rhand -17.2942 -24.6677
rfingers 7.12502
rthumb 8.95148 -54.4578
lclavicle -8.32411e-015 -1.83876e-015
lhumerus -30.6014 -7.84511 69.4612
lradius 18.4884
lwrist 10.8341
lhand -19.6307 -1.87281
lfingers 7.12502
lthumb 6.69636 28.0013
rfemur -3.3706 -8.20902 17.3951
rtibia 23.4533
rfoot 22.566 -9.9456
rtoes 13.9409
lfemur -7.78862 6.77457 -13.0697
ltibia 26.0813
lfoot 26.1902 -3.54789
ltoes -11.102
248
root 0.111318 19.9785 -7.04031 15.5863 2.19496 -1.01015
lowerback -7.82335 -0.64103 -1.96213
upperback -1.00983 -0.730325 1.2173
thorax 3.38203 -0.395084 2.28579
lowerneck -10.2666 -0.0259716 -2.67507
upperneck 21.4651 -0.0508568 2.40656
head 8.34918 0.00213787 1.25034
rclavicle 5.34855e-015 6.95746e-016
rhumerus -31.855 -0.541736 -72.5074
rradius 36.9401
rwrist 31.6447
rhand -17.2558 -24.7324
rfingers 7.12502
rthumb 8.98856 -54.5209
lclavicle 5.34855e-015 6.95746e-016
lhumerus -30.8129 -7.91243 69.4959
lradius 18.2876
lwrist 10.3294
lhand -19.2226 -1.95443
lfingers 7.12502
lthumb 7.09025 27.9068
rfemur -3.58 -8.09737 17.6713
rtibia 25.7208
rfoot 24.0888 -9.58711
rtoes 16.7288
lfemur -8.39187 6.63449 -12.687
ltibia 28.4229
lfoot 26.8242 -3.51639
ltoes -10.1961
